<svg xmlns="http://www.w3.org/2000/svg" xmlns:xlink="http://www.w3.org/1999/xlink" width="2000" zoomAndPan="magnify" viewBox="0 0 1500 1499.999933" height="2000" preserveAspectRatio="xMidYMid meet" version="1.0"><defs><clipPath id="cbdd2c7b19"><path d="M 105.566406 244.925781 L 1394.066406 244.925781 L 1394.066406 1255.175781 L 105.566406 1255.175781 Z M 105.566406 244.925781 " clip-rule="nonzero"/></clipPath><clipPath id="6613c7b57a"><path d="M 1326 985 L 1394.066406 985 L 1394.066406 1054 L 1326 1054 Z M 1326 985 " clip-rule="nonzero"/></clipPath><clipPath id="1340f74fff"><path d="M 851 1187 L 1056 1187 L 1056 1255.175781 L 851 1255.175781 Z M 851 1187 " clip-rule="nonzero"/></clipPath><clipPath id="c6d6229dc0"><path d="M 512 244.925781 L 784 244.925781 L 784 313 L 512 313 Z M 512 244.925781 " clip-rule="nonzero"/></clipPath><clipPath id="105fdb15e3"><path d="M 105.566406 783 L 174 783 L 174 919 L 105.566406 919 Z M 105.566406 783 " clip-rule="nonzero"/></clipPath></defs><g clip-path="url(#cbdd2c7b19)"><path fill="#3b2714" d="M 1326.21875 985.753906 L 1326.21875 918.453125 L 1122.777344 918.453125 L 1122.777344 851.023438 L 1055.09375 851.023438 L 1055.09375 716.417969 L 987.28125 716.417969 L 987.28125 446.957031 L 919.46875 446.957031 L 919.46875 379.65625 L 851.65625 379.65625 L 851.65625 312.355469 L 783.839844 312.355469 L 783.839844 244.925781 L 512.714844 244.925781 L 512.714844 312.355469 L 444.902344 312.355469 L 444.902344 379.65625 L 377.21875 379.65625 L 377.21875 446.957031 L 309.402344 446.957031 L 309.402344 716.417969 L 173.777344 716.417969 L 173.777344 783.71875 L 105.964844 783.71875 L 105.964844 918.453125 L 173.777344 918.453125 L 173.777344 985.753906 L 241.589844 985.753906 L 241.589844 918.453125 L 377.21875 918.453125 L 377.21875 851.023438 L 444.902344 851.023438 L 444.902344 985.753906 L 512.714844 985.753906 L 512.714844 1120.484375 L 648.339844 1120.484375 L 648.339844 1187.785156 L 851.65625 1187.785156 L 851.65625 1255.085938 L 1055.09375 1255.085938 L 1055.09375 1187.785156 L 1190.59375 1187.785156 L 1190.59375 1120.484375 L 1326.21875 1120.484375 L 1326.21875 1053.054688 L 1394.03125 1053.054688 L 1394.03125 985.753906 Z M 1326.21875 985.753906 " fill-opacity="1" fill-rule="nonzero"/></g><path fill="#ffffff" d="M 1036.085938 1006.886719 L 1016.894531 919.457031 L 969.976562 876.09375 L 944.386719 806.433594 L 919.523438 716.355469 L 864.773438 527.078125 L 851.710938 446.894531 L 817.8125 413.304688 L 741.800781 342.972656 L 703.773438 292.859375 L 512.773438 312.292969 L 512.773438 379.59375 L 444.960938 379.59375 L 444.960938 446.894531 L 377.273438 446.894531 L 377.273438 716.355469 L 481.875 716.355469 L 444.960938 850.960938 L 512.773438 850.960938 L 512.773438 985.691406 L 580.585938 985.691406 L 580.585938 1052.992188 L 648.339844 1052.992188 L 716.210938 1120.421875 L 851.710938 1120.421875 L 851.710938 1187.722656 L 1055.148438 1187.722656 L 1055.148438 1120.421875 L 1131.101562 1088.160156 L 1171.378906 1034.136719 L 1247.203125 1028.210938 L 1253.597656 1000.488281 Z M 1036.085938 1006.886719 " fill-opacity="1" fill-rule="nonzero"/><path fill="#ffffff" d="M 241.589844 783.71875 L 173.777344 783.71875 L 173.777344 918.453125 L 241.589844 918.453125 L 241.589844 851.023438 L 268.742188 837.710938 L 339.117188 829.890625 L 331.296875 805.011719 L 288.648438 812.121094 Z M 241.589844 783.71875 " fill-opacity="1" fill-rule="nonzero"/><path fill="#ff4800" d="M 1258.40625 985.753906 L 1086.429688 985.753906 L 1090.820312 892.445312 L 1055.09375 851.023438 L 1024 806.667969 L 1021.1875 746.960938 L 987.28125 716.417969 L 929.816406 682.039062 L 939.175781 664.03125 L 956.472656 600.292969 L 953.375 529.917969 L 942.964844 478.738281 L 919.46875 446.957031 L 881.480469 417.253906 L 851.65625 379.65625 L 819.28125 343.683594 L 783.839844 312.355469 L 716.15625 312.355469 L 716.15625 379.65625 L 722.132812 421.398438 L 783.839844 446.957031 L 783.839844 476.609375 L 806.714844 554.902344 L 699.152344 556.222656 L 677.117188 677.773438 L 815.4375 671.375 L 817.8125 728.953125 L 860.511719 742.695312 L 866.195312 761.175781 L 880.886719 826.101562 L 886.808594 894.574219 L 825.679688 878.9375 L 750 895.996094 L 772.269531 955.0625 L 740.144531 952.101562 L 724.976562 884.738281 L 614.4375 901.921875 L 601.292969 1019.402344 L 663.375 1011.863281 L 678.183594 1076.191406 L 805.066406 1075.835938 L 812.566406 1005.828125 L 824.257812 1013.996094 L 873.304688 1026.789062 L 950.074219 1030.34375 L 977.085938 1053.054688 L 1047.222656 1088.632812 L 1143.894531 1081.050781 L 1190.59375 1053.054688 L 1326.21875 1053.054688 L 1326.21875 985.753906 Z M 1258.40625 985.753906 " fill-opacity="1" fill-rule="nonzero"/><path fill="#ff4800" d="M 677.117188 689.144531 L 563.382812 682.039062 L 536.371094 800.746094 L 671.429688 814.253906 Z M 677.117188 689.144531 " fill-opacity="1" fill-rule="nonzero"/><path fill="#ff4800" d="M 414.109375 677.773438 L 536.371094 677.773438 L 538.503906 556.933594 L 433.65625 553.734375 Z M 414.109375 677.773438 " fill-opacity="1" fill-rule="nonzero"/><path fill="#ff4800" d="M 309.402344 851.023438 L 377.21875 851.023438 L 405.578125 731.085938 L 309.402344 783.71875 Z M 309.402344 851.023438 " fill-opacity="1" fill-rule="nonzero"/><path fill="#faede8" d="M 1122.777344 1053.054688 L 1055.09375 1053.054688 L 1055.09375 985.753906 L 783.839844 985.753906 L 783.839844 1053.054688 L 851.65625 1053.054688 L 851.65625 1120.484375 L 1190.59375 1120.484375 L 1190.59375 1053.054688 Z M 1122.777344 1053.054688 " fill-opacity="1" fill-rule="nonzero"/><path fill="#faede8" d="M 783.839844 783.71875 L 783.839844 851.023438 L 919.46875 851.023438 L 919.46875 783.71875 Z M 783.839844 783.71875 " fill-opacity="1" fill-rule="nonzero"/><path fill="#faede8" d="M 851.65625 716.417969 L 851.65625 446.957031 L 783.839844 446.957031 L 783.839844 379.65625 L 716.15625 379.65625 L 716.15625 312.355469 L 580.527344 312.355469 L 580.527344 379.65625 L 512.714844 379.65625 L 512.714844 446.957031 L 444.902344 446.957031 L 444.902344 514.386719 L 512.714844 514.386719 L 512.714844 648.988281 L 444.902344 648.988281 L 444.902344 783.71875 L 512.714844 783.71875 L 512.714844 851.023438 L 580.527344 851.023438 L 580.527344 985.753906 L 648.339844 985.753906 L 648.339844 783.71875 L 580.527344 783.71875 L 580.527344 581.6875 L 648.339844 581.6875 L 648.339844 783.71875 L 716.15625 783.71875 L 716.15625 716.417969 Z M 716.15625 648.988281 L 716.15625 514.386719 L 783.839844 514.386719 L 783.839844 648.988281 Z M 716.15625 648.988281 " fill-opacity="1" fill-rule="nonzero"/><path fill="#faede8" d="M 648.339844 985.753906 L 716.15625 985.753906 L 716.15625 1075.839844 L 648.339844 1075.839844 Z M 648.339844 985.753906 " fill-opacity="1" fill-rule="nonzero"/><path fill="#faede8" d="M 241.589844 783.71875 L 309.402344 783.71875 L 309.402344 851.023438 L 241.589844 851.023438 Z M 241.589844 783.71875 " fill-opacity="1" fill-rule="nonzero"/><path fill="#ffffff" d="M 987.28125 1120.484375 L 851.65625 1120.484375 L 851.65625 1187.785156 L 1055.09375 1187.785156 L 1055.09375 1120.484375 Z M 987.28125 1120.484375 " fill-opacity="1" fill-rule="nonzero"/><path fill="#ffffff" d="M 783.839844 1053.054688 L 716.15625 1053.054688 L 716.15625 1120.484375 L 851.65625 1120.484375 L 851.65625 1053.054688 Z M 783.839844 1053.054688 " fill-opacity="1" fill-rule="nonzero"/><path fill="#ffffff" d="M 783.839844 851.023438 L 783.839844 783.71875 L 716.15625 783.71875 L 716.15625 918.453125 L 783.839844 918.453125 Z M 783.839844 851.023438 " fill-opacity="1" fill-rule="nonzero"/><path fill="#ffffff" d="M 580.527344 985.753906 L 648.339844 985.753906 L 648.339844 1053.054688 L 580.527344 1053.054688 Z M 580.527344 985.753906 " fill-opacity="1" fill-rule="nonzero"/><path fill="#ffffff" d="M 580.527344 851.023438 L 512.714844 851.023438 L 512.714844 985.753906 L 580.527344 985.753906 Z M 580.527344 851.023438 " fill-opacity="1" fill-rule="nonzero"/><path fill="#ffffff" d="M 512.714844 312.355469 L 580.527344 312.355469 L 580.527344 379.65625 L 512.714844 379.65625 Z M 512.714844 312.355469 " fill-opacity="1" fill-rule="nonzero"/><path fill="#ffffff" d="M 444.902344 783.71875 L 512.714844 783.71875 L 512.714844 851.023438 L 444.902344 851.023438 Z M 444.902344 783.71875 " fill-opacity="1" fill-rule="nonzero"/><path fill="#ffffff" d="M 444.902344 379.65625 L 512.714844 379.65625 L 512.714844 446.957031 L 444.902344 446.957031 Z M 444.902344 379.65625 " fill-opacity="1" fill-rule="nonzero"/><path fill="#ffffff" d="M 444.902344 648.988281 L 444.902344 446.957031 L 377.21875 446.957031 L 377.21875 716.417969 L 444.902344 716.417969 Z M 444.902344 648.988281 " fill-opacity="1" fill-rule="nonzero"/><path fill="#ffffff" d="M 173.777344 851.023438 L 173.777344 918.453125 L 241.589844 918.453125 L 241.589844 783.71875 L 173.777344 783.71875 Z M 173.777344 851.023438 " fill-opacity="1" fill-rule="nonzero"/><g clip-path="url(#6613c7b57a)"><path fill="#3b2714" d="M 1326.21875 985.753906 L 1394.03125 985.753906 L 1394.03125 1053.054688 L 1326.21875 1053.054688 Z M 1326.21875 985.753906 " fill-opacity="1" fill-rule="nonzero"/></g><path fill="#3b2714" d="M 1190.59375 1053.054688 L 1190.59375 1120.484375 L 1326.21875 1120.484375 L 1326.21875 1053.054688 Z M 1190.59375 1053.054688 " fill-opacity="1" fill-rule="nonzero"/><path fill="#3b2714" d="M 1055.09375 1120.484375 L 1055.09375 1187.785156 L 1190.59375 1187.785156 L 1190.59375 1120.484375 Z M 1055.09375 1120.484375 " fill-opacity="1" fill-rule="nonzero"/><path fill="#3b2714" d="M 1055.09375 985.753906 L 1326.21875 985.753906 L 1326.21875 918.453125 L 1122.777344 918.453125 L 1122.777344 851.023438 L 1055.09375 851.023438 Z M 1055.09375 985.753906 " fill-opacity="1" fill-rule="nonzero"/><path fill="#3b2714" d="M 987.28125 851.023438 L 1055.09375 851.023438 L 1055.09375 716.417969 L 987.28125 716.417969 Z M 987.28125 851.023438 " fill-opacity="1" fill-rule="nonzero"/><g clip-path="url(#1340f74fff)"><path fill="#3b2714" d="M 919.46875 1187.785156 L 851.65625 1187.785156 L 851.65625 1255.085938 L 1055.09375 1255.085938 L 1055.09375 1187.785156 Z M 919.46875 1187.785156 " fill-opacity="1" fill-rule="nonzero"/></g><path fill="#3b2714" d="M 919.46875 581.6875 L 919.46875 716.417969 L 987.28125 716.417969 L 987.28125 446.957031 L 919.46875 446.957031 Z M 919.46875 581.6875 " fill-opacity="1" fill-rule="nonzero"/><path fill="#3b2714" d="M 919.46875 918.453125 L 919.46875 851.023438 L 783.839844 851.023438 L 783.839844 918.453125 Z M 919.46875 918.453125 " fill-opacity="1" fill-rule="nonzero"/><path fill="#3b2714" d="M 851.65625 379.65625 L 919.46875 379.65625 L 919.46875 446.957031 L 851.65625 446.957031 Z M 851.65625 379.65625 " fill-opacity="1" fill-rule="nonzero"/><path fill="#3b2714" d="M 783.839844 1120.484375 L 716.15625 1120.484375 L 716.15625 1053.054688 L 580.527344 1053.054688 L 580.527344 985.753906 L 512.714844 985.753906 L 512.714844 1120.484375 L 648.339844 1120.484375 L 648.339844 1187.785156 L 851.65625 1187.785156 L 851.65625 1120.484375 Z M 783.839844 1120.484375 " fill-opacity="1" fill-rule="nonzero"/><path fill="#3b2714" d="M 783.839844 716.417969 L 716.15625 716.417969 L 716.15625 783.71875 L 919.46875 783.71875 L 919.46875 716.417969 Z M 783.839844 716.417969 " fill-opacity="1" fill-rule="nonzero"/><path fill="#3b2714" d="M 783.839844 312.355469 L 851.65625 312.355469 L 851.65625 379.65625 L 783.839844 379.65625 Z M 783.839844 312.355469 " fill-opacity="1" fill-rule="nonzero"/><path fill="#3b2714" d="M 716.15625 918.453125 L 783.839844 918.453125 L 783.839844 985.75 L 716.15625 985.75 Z M 716.15625 918.453125 " fill-opacity="1" fill-rule="nonzero"/><path fill="#3b2714" d="M 716.15625 514.386719 L 783.839844 514.386719 L 783.839844 581.6875 L 716.15625 581.6875 Z M 716.15625 514.386719 " fill-opacity="1" fill-rule="nonzero"/><path fill="#3b2714" d="M 648.339844 851.023438 L 648.339844 918.453125 L 716.15625 918.453125 L 716.15625 783.71875 L 648.339844 783.71875 Z M 648.339844 851.023438 " fill-opacity="1" fill-rule="nonzero"/><path fill="#3b2714" d="M 648.339844 648.988281 L 648.339844 581.6875 L 580.527344 581.6875 L 580.527344 716.417969 L 648.339844 716.417969 Z M 648.339844 648.988281 " fill-opacity="1" fill-rule="nonzero"/><g clip-path="url(#c6d6229dc0)"><path fill="#3b2714" d="M 648.339844 312.355469 L 783.839844 312.355469 L 783.839844 244.925781 L 512.714844 244.925781 L 512.714844 312.355469 Z M 648.339844 312.355469 " fill-opacity="1" fill-rule="nonzero"/></g><path fill="#3b2714" d="M 512.714844 851.023438 L 444.902344 851.023438 L 444.902344 985.753906 L 512.714844 985.753906 Z M 512.714844 851.023438 " fill-opacity="1" fill-rule="nonzero"/><path fill="#3b2714" d="M 444.902344 514.386719 L 512.714844 514.386719 L 512.714844 581.6875 L 444.902344 581.6875 Z M 444.902344 514.386719 " fill-opacity="1" fill-rule="nonzero"/><path fill="#3b2714" d="M 444.902344 312.355469 L 512.714844 312.355469 L 512.714844 379.65625 L 444.902344 379.65625 Z M 444.902344 312.355469 " fill-opacity="1" fill-rule="nonzero"/><path fill="#3b2714" d="M 444.902344 716.417969 L 377.21875 716.417969 L 377.21875 446.957031 L 309.402344 446.957031 L 309.402344 716.417969 L 173.777344 716.417969 L 173.777344 783.71875 L 377.21875 783.71875 L 377.21875 851.023438 L 444.902344 851.023438 Z M 444.902344 716.417969 " fill-opacity="1" fill-rule="nonzero"/><path fill="#3b2714" d="M 377.21875 379.65625 L 444.902344 379.65625 L 444.902344 446.957031 L 377.21875 446.957031 Z M 377.21875 379.65625 " fill-opacity="1" fill-rule="nonzero"/><path fill="#3b2714" d="M 241.589844 851.023438 L 241.589844 918.453125 L 377.21875 918.453125 L 377.21875 851.023438 Z M 241.589844 851.023438 " fill-opacity="1" fill-rule="nonzero"/><path fill="#3b2714" d="M 173.777344 918.453125 L 241.589844 918.453125 L 241.589844 985.75 L 173.777344 985.75 Z M 173.777344 918.453125 " fill-opacity="1" fill-rule="nonzero"/><g clip-path="url(#105fdb15e3)"><path fill="#3b2714" d="M 173.777344 783.71875 L 105.964844 783.71875 L 105.964844 918.453125 L 173.777344 918.453125 Z M 173.777344 783.71875 " fill-opacity="1" fill-rule="nonzero"/></g></svg>